<?xml version="1.0" encoding="utf-8"?>
<svg viewBox="100 0 777.431 200" xmlns="http://www.w3.org/2000/svg" >
  <defs>
    <style >@import url(https://fonts.googleapis.com/css2?family=IBM+Plex+Sans%3Aital%2Cwght%400%2C100%3B0%2C200%3B0%2C300%3B0%2C400%3B0%2C500%3B0%2C600%3B0%2C700%3B1%2C100%3B1%2C200%3B1%2C300%3B1%2C400%3B1%2C500%3B1%2C600%3B1%2C700&amp;display=swap);</style>
    <style >@import url(https://fonts.googleapis.com/css2?family=Roboto+Mono%3Aital%2Cwght%400%2C100%3B0%2C200%3B0%2C300%3B0%2C400%3B0%2C500%3B0%2C600%3B0%2C700%3B1%2C100%3B1%2C200%3B1%2C300%3B1%2C400%3B1%2C500%3B1%2C600%3B1%2C700&amp;display=swap);</style>
    <style >@import url(https://fonts.googleapis.com/css2?family=Roboto%3Aital%2Cwght%400%2C100%3B0%2C300%3B0%2C400%3B0%2C500%3B0%2C700%3B0%2C900%3B1%2C100%3B1%2C300%3B1%2C400%3B1%2C500%3B1%2C700%3B1%2C900&amp;display=swap);</style>
  </defs>
  <g transform="matrix(6.194934, 0, 0, 6.194934, 132.166489, 25.777779)">
    <g/>
    <g>
      <g>
        <path d="M16.5,12h-9c-0.55,0-1,0.45-1,1v1h11v-1C17.5,12.45,17.05,12,16.5,12z"/>
        <rect height="2" width="4" x="7.25" y="8.5"/>
        <rect height="2" width="4" x="12.75" y="8.5"/>
        <path d="M20,2H4C2.9,2,2,2.9,2,4v16c0,1.1,0.9,2,2,2h16c1.1,0,2-0.9,2-2V4C22,2.9,21.1,2,20,2z M19,17h-1.5v-1.5h-11V17H5v-3.83 c0-0.66,0.25-1.26,0.65-1.72V9c0-1.1,0.9-2,2-2H11c0.37,0,0.72,0.12,1,0.32C12.28,7.12,12.63,7,13,7h3.35c1.1,0,2,0.9,2,2v2.45 c0.4,0.46,0.65,1.06,0.65,1.72V17z"/>
      </g>
    </g>
  </g>
  <text style="font-family: Roboto; font-size: 61px; text-anchor: middle; white-space: pre;" transform="matrix(1, 0, 0, 1, 420.806, 88.662384)"><tspan x="143.328" y="29.745">Townsend Hotels</tspan><tspan x="143.328" dy="1em">​</tspan><tspan x="143.328" dy="1em">​</tspan></text>
</svg>